#N canvas 637 50 1218 744 12;
#N canvas 24 132 736 591 voices 1;
#X obj 10 10 r 1003-voices-in;
#X obj 10 550 s~ 1003-voices-out;
#X restore 721 408 pd voices;
#X msg 531 472 \; pd-voices clear;
#X obj 207 294 until;
#X obj 207 385 f 0;
#X obj 239 385 + 1;
#X msg 228 358 0;
#X obj 228 330 r \$0-reset;
#X obj 518 513 s \$0-reset;
#X msg 518 648 \; pd-voices obj 10 10 r \$1-voices-in;
#X obj 481 543 f \$0;
#X obj 481 339 bng 30 250 50 0 empty empty Reset 35 7 0 10 -262144
-1 -1;
#X floatatom 59 470 5 0 0 0 - - -, f 5;
#X obj 481 441 t b b;
#X msg 207 236 1;
#X obj 207 475 + 2;
#X obj 481 568 t f f;
#X obj 207 265 t f;
#X obj 112 49 inlet num-new-voices;
#X obj 481 269 inlet reset;
#X obj 59 521 s \$0-total-voices;
#X obj 59 492 + 1;
#X obj 721 438 r~ \$0-voices-out;
#X obj 835 680 dac~;
#X obj 742 470 r \$0-total-voices;
#X obj 721 378 s \$0-voices-in;
#X obj 721 35 r \$0-total-voices;
#X obj 721 193 f 0;
#X obj 753 193 + 1;
#X msg 742 166 0;
#X obj 758 137 r \$0-reset;
#X obj 721 353 pack f f;
#X obj 721 218 t f b;
#X obj 721 85 t f b;
#X obj 878 144 bng 15 250 50 0 empty empty empty 17 7 0 10 -262144
-1 -1;
#X floatatom 721 60 5 0 0 0 - - -, f 5;
#X obj 693 46 bng 15 250 50 0 empty empty empty 17 7 0 10 -262144 -1
-1;
#X obj 403 30 tgl 15 0 empty empty empty 17 7 0 10 -262144 -1 -1 0
1;
#X obj 403 169 f 0;
#X obj 435 169 + 1;
#X msg 424 142 0;
#X obj 424 114 r \$0-reset;
#X obj 403 91 t b b;
#X obj 403 66 metro 50;
#X obj 377 66 bng 15 250 50 0 empty empty empty 17 7 0 10 -262144 -1
-1;
#X msg 631 131 4 440;
#X floatatom 403 194 5 0 0 0 - - -, f 5;
#N canvas 0 50 450 250 (subpatch) 0;
#X array array1 5 float 3;
#A 0 51.4286 56.4286 52.1429 76.4286 60;
#X coords 0 0 5 100 200 140 1 0 0;
#X restore 951 172 graph;
#X obj 808 233 tabread array1;
#X obj 808 174 random 5;
#X floatatom 808 258 5 0 0 0 - - -, f 5;
#X obj 808 320 mtof;
#X obj 808 290 +;
#X obj 865 321 * 12;
#X obj 808 199 t f b;
#X obj 207 559 pack f f f f;
#X obj 865 290 - 2;
#X obj 865 265 random 4;
#X obj 742 520 line~;
#X obj 720 551 /~;
#X msg 742 495 \$1 10;
#X obj 768 579 line~;
#X obj 720 576 *~;
#X msg 768 553 \$1 10;
#X msg 538 415 0;
#X obj 481 415 del 10;
#X obj 805 497 r \$0-reset;
#X msg 805 522 1;
#X msg 207 638 \; pd-voices obj \$2 \$3 voice \$4 \; pd-voices connect
0 0 \$1 0 \; pd-voices connect \$1 0 1 0;
#X floatatom 492 36 5 0 0 1 Max_voices - -, f 5;
#X obj 403 241 sel 1;
#X obj 403 216 >= 100;
#X floatatom 446 39 5 0 0 0 - - -, f 5;
#X msg 481 688 \; pd-voices obj 10 550 s~ \$1-voices-out;
#X obj 835 652 *~;
#X obj 857 627 line~;
#X msg 857 601 \$1 10;
#X obj 860 573 hsl 128 15 0 1 0 0 empty empty Volume -2 -8 0 10 -262144
-1 -1 1600 1;
#X obj 207 442 t f f f;
#X obj 297 477 t b;
#X obj 297 502 f;
#X obj 207 410 t f f f;
#X obj 351 380 / 10;
#X obj 351 405 int;
#X obj 351 430 + 1;
#X obj 238 492 mod 10;
#X obj 238 517 * 70;
#X obj 351 479 + 50;
#X obj 351 454 * 20;
#X connect 2 0 3 0;
#X connect 3 0 4 0;
#X connect 3 0 80 0;
#X connect 4 0 3 1;
#X connect 5 0 3 1;
#X connect 6 0 5 0;
#X connect 9 0 15 0;
#X connect 10 0 63 0;
#X connect 10 0 64 0;
#X connect 11 0 20 0;
#X connect 12 0 9 0;
#X connect 12 1 1 0;
#X connect 12 1 7 0;
#X connect 13 0 16 0;
#X connect 14 0 54 0;
#X connect 15 0 72 0;
#X connect 15 1 8 0;
#X connect 16 0 2 0;
#X connect 17 0 16 0;
#X connect 18 0 10 0;
#X connect 20 0 19 0;
#X connect 21 0 58 0;
#X connect 23 0 59 0;
#X connect 25 0 34 0;
#X connect 26 0 27 0;
#X connect 26 0 31 0;
#X connect 27 0 26 1;
#X connect 28 0 26 1;
#X connect 29 0 28 0;
#X connect 30 0 24 0;
#X connect 31 0 30 0;
#X connect 31 1 48 0;
#X connect 32 1 26 0;
#X connect 33 0 48 0;
#X connect 34 0 32 0;
#X connect 35 0 34 0;
#X connect 36 0 42 0;
#X connect 37 0 38 0;
#X connect 37 0 45 0;
#X connect 38 0 37 1;
#X connect 39 0 37 1;
#X connect 40 0 39 0;
#X connect 41 0 37 0;
#X connect 41 1 13 0;
#X connect 42 0 41 0;
#X connect 43 0 41 0;
#X connect 44 0 24 0;
#X connect 45 0 70 0;
#X connect 47 0 49 0;
#X connect 48 0 53 0;
#X connect 49 0 51 0;
#X connect 50 0 30 1;
#X connect 51 0 50 0;
#X connect 52 0 51 1;
#X connect 53 0 47 0;
#X connect 53 1 56 0;
#X connect 54 0 67 0;
#X connect 55 0 52 0;
#X connect 56 0 55 0;
#X connect 57 0 58 1;
#X connect 58 0 61 0;
#X connect 59 0 57 0;
#X connect 60 0 61 1;
#X connect 61 0 73 0;
#X connect 62 0 60 0;
#X connect 63 0 62 0;
#X connect 64 0 12 0;
#X connect 65 0 66 0;
#X connect 66 0 62 0;
#X connect 68 0 70 1;
#X connect 69 0 10 0;
#X connect 70 0 69 0;
#X connect 71 0 42 1;
#X connect 73 0 22 0;
#X connect 73 0 22 1;
#X connect 74 0 73 1;
#X connect 75 0 74 0;
#X connect 76 0 75 0;
#X connect 77 0 14 0;
#X connect 77 1 78 0;
#X connect 77 1 84 0;
#X connect 77 2 54 3;
#X connect 78 0 79 0;
#X connect 79 0 54 2;
#X connect 80 0 11 0;
#X connect 80 1 77 0;
#X connect 80 2 81 0;
#X connect 81 0 82 0;
#X connect 82 0 83 0;
#X connect 83 0 87 0;
#X connect 84 0 85 0;
#X connect 85 0 54 1;
#X connect 86 0 79 1;
#X connect 87 0 86 0;
