#N canvas 723 163 841 567 12;
#N canvas 17 162 526 494 patch 1;
#X coords 0 -1 1 1 400 400 2 0 0;
#X restore 310 35 pd patch;
#N canvas 227 149 449 676 box-test 0;
#X obj 72 436 until;
#X obj 132 491 f 0;
#X msg 153 466 0;
#X obj 72 376 t b b;
#X obj 72 351 bng 15 250 50 0 empty empty empty 17 7 0 10 -262144 -1
-1;
#X floatatom 132 516 5 0 0 0 - - -, f 5;
#X obj 110 283 until;
#X obj 147 370 f 0;
#X msg 168 345 0;
#X floatatom 184 426 5 0 0 0 - - -, f 5;
#X obj 110 308 t b b;
#X obj 147 395 t f f;
#X obj 110 206 bng 15 250 50 0 empty empty empty 17 7 0 10 -262144
-1 -1;
#X obj 110 226 t b b b;
#X obj 47 527 f 0;
#X msg 68 502 0;
#X obj 72 461 t b b;
#X obj 85 527 + 1;
#X obj 94 567 pack f f f;
#X msg 182 272 \; pd-patch clear;
#X msg 94 599 \; pd-patch obj \$2 \$3 toggle-test \$1;
#X obj 220 372 + 35;
#X obj 164 491 + 35;
#X obj 72 401 f;
#X obj 110 251 f;
#X obj 93 163 unpack f f;
#X obj 56 137 t b a;
#X obj 56 108 pack f f;
#X floatatom 56 46 5 0 0 0 - - -, f 5;
#X floatatom 106 46 5 0 0 0 - - -, f 5;
#X obj 106 68 t b f;
#X obj 56 17 inlet;
#X obj 106 17 inlet;
#X connect 0 0 16 0;
#X connect 1 0 5 0;
#X connect 1 0 22 0;
#X connect 2 0 1 1;
#X connect 3 0 23 0;
#X connect 3 1 2 0;
#X connect 4 0 3 0;
#X connect 5 0 18 1;
#X connect 6 0 10 0;
#X connect 7 0 11 0;
#X connect 8 0 7 1;
#X connect 8 0 15 0;
#X connect 9 0 18 2;
#X connect 10 0 4 0;
#X connect 10 1 7 0;
#X connect 11 0 21 0;
#X connect 11 1 9 0;
#X connect 12 0 13 0;
#X connect 13 0 24 0;
#X connect 13 1 8 0;
#X connect 13 2 19 0;
#X connect 14 0 17 0;
#X connect 14 0 18 0;
#X connect 15 0 14 1;
#X connect 16 0 14 0;
#X connect 16 1 1 0;
#X connect 17 0 14 1;
#X connect 18 0 20 0;
#X connect 21 0 7 1;
#X connect 22 0 1 1;
#X connect 23 0 0 0;
#X connect 24 0 6 0;
#X connect 25 0 23 1;
#X connect 25 1 24 1;
#X connect 26 0 12 0;
#X connect 26 1 25 0;
#X connect 27 0 26 0;
#X connect 28 0 27 0;
#X connect 29 0 30 0;
#X connect 30 0 27 0;
#X connect 30 1 27 1;
#X connect 31 0 28 0;
#X connect 32 0 29 0;
#X restore 34 361 pd box-test;
#N canvas 245 58 839 900 circle-test 0;
#X obj 401 309 until;
#X obj 438 376 f 0;
#X msg 459 351 0;
#X floatatom 475 432 5 0 0 0 - - -, f 5;
#X obj 401 334 t b b;
#X obj 438 401 t f f;
#X obj 401 212 bng 15 250 50 0 empty empty empty 17 7 0 10 -262144
-1 -1;
#X obj 401 232 t b b b;
#X obj 401 461 f 0;
#X msg 422 436 0;
#X obj 439 461 + 1;
#X obj 401 803 pack f f f;
#X msg 454 261 \; pd-patch clear;
#X obj 401 257 f;
#X obj 384 178 unpack f f;
#X floatatom 347 52 5 0 0 0 - - -, f 5;
#X floatatom 397 52 5 0 0 0 - - -, f 5;
#X obj 347 23 inlet;
#X obj 397 23 inlet;
#X text 496 801 id \, x \, y;
#X obj 511 378 + 1;
#X obj 423 564 /;
#X obj 475 564 /;
#X obj 496 534 r \$0-num-toggles;
#X obj 208 114 s \$0-num-toggles;
#X obj 423 709 *;
#X obj 475 709 *;
#X obj 529 676 r \$0-spacing;
#X obj 434 104 s \$0-spacing;
#X msg 347 113 \$1 \$1;
#X msg 401 835 \; pd-patch obj \$2 \$3 toggle \$1;
#X obj 328 29 bng 15 250 50 0 empty empty empty 17 7 0 10 -262144 -1
-1;
#X obj 475 630 * 6.28319;
#X obj 423 603 * 6.28319;
#X obj 423 664 cos;
#X obj 475 664 sin;
#X obj 423 764 +;
#X obj 475 763 +;
#X obj 129 315 until;
#X obj 166 382 f 0;
#X floatatom 203 438 5 0 0 0 - - -, f 5;
#X obj 129 340 t b b;
#X obj 166 407 t f f;
#X obj 129 467 f 0;
#X obj 167 467 + 1;
#X obj 239 384 + 1;
#X obj 129 254 f;
#X obj 347 143 t b b a;
#X obj 397 74 t b f;
#X msg 187 309 0;
#X obj 129 279 t f b;
#X msg 166 636 \; pd-patch obj \$2 \$3 s tog-\$1;
#X obj 129 572 pack f f f;
#X obj 203 490 t f b;
#X obj 167 539 * 75;
#X msg 129 827 \; pd-patch connect \$1 0 \$2 0;
#X obj 129 791 pack f f;
#X obj 129 597 t a a;
#X obj 129 685 unpack f f f;
#X obj 129 709 t f f;
#X obj 184 715 r \$0-num-toggles;
#X obj 166 747 +;
#X obj 206 539 f 300;
#X connect 0 0 4 0;
#X connect 1 0 5 0;
#X connect 2 0 1 1;
#X connect 2 0 9 0;
#X connect 3 0 22 0;
#X connect 3 0 21 0;
#X connect 4 0 8 0;
#X connect 4 1 1 0;
#X connect 5 0 20 0;
#X connect 5 1 3 0;
#X connect 6 0 7 0;
#X connect 7 0 13 0;
#X connect 7 1 2 0;
#X connect 7 2 12 0;
#X connect 8 0 10 0;
#X connect 8 0 11 0;
#X connect 9 0 8 1;
#X connect 10 0 8 1;
#X connect 11 0 30 0;
#X connect 13 0 0 0;
#X connect 14 0 46 1;
#X connect 14 1 13 1;
#X connect 15 0 24 0;
#X connect 15 0 29 0;
#X connect 16 0 48 0;
#X connect 17 0 15 0;
#X connect 18 0 16 0;
#X connect 20 0 1 1;
#X connect 21 0 33 0;
#X connect 22 0 32 0;
#X connect 23 0 21 1;
#X connect 23 0 22 1;
#X connect 25 0 36 0;
#X connect 26 0 37 0;
#X connect 27 0 25 1;
#X connect 27 0 26 1;
#X connect 27 0 36 1;
#X connect 27 0 37 1;
#X connect 29 0 47 0;
#X connect 31 0 15 0;
#X connect 32 0 35 0;
#X connect 33 0 34 0;
#X connect 34 0 25 0;
#X connect 35 0 26 0;
#X connect 36 0 11 1;
#X connect 37 0 11 2;
#X connect 38 0 41 0;
#X connect 39 0 42 0;
#X connect 40 0 53 0;
#X connect 41 0 43 0;
#X connect 41 1 39 0;
#X connect 42 0 45 0;
#X connect 42 1 40 0;
#X connect 43 0 44 0;
#X connect 43 0 52 0;
#X connect 44 0 43 1;
#X connect 45 0 39 1;
#X connect 46 0 50 0;
#X connect 47 0 46 0;
#X connect 47 1 6 0;
#X connect 47 2 14 0;
#X connect 48 0 15 0;
#X connect 48 1 28 0;
#X connect 49 0 39 1;
#X connect 49 0 43 1;
#X connect 50 0 38 0;
#X connect 50 1 49 0;
#X connect 52 0 57 0;
#X connect 53 0 54 0;
#X connect 53 1 62 0;
#X connect 54 0 52 1;
#X connect 56 0 55 0;
#X connect 57 0 58 0;
#X connect 57 1 51 0;
#X connect 58 0 59 0;
#X connect 59 0 56 0;
#X connect 59 1 61 0;
#X connect 60 0 61 1;
#X connect 61 0 56 1;
#X connect 62 0 52 2;
#X restore 34 258 pd circle-test;
#X msg 249 474 \; pd-patch clear;
#X floatatom 34 236 5 0 0 2 Amount - -, f 5;
#X floatatom 143 233 5 0 0 2 Spacing - -, f 5;
#X floatatom 34 333 5 0 0 2 X - -, f 5;
#X floatatom 119 333 5 0 0 2 Y - -, f 5;
#X obj 34 17 tgl 15 0 empty empty empty 17 7 0 10 -262144 -1 -1 0 1
;
#X obj 34 79 f 0;
#X obj 72 79 + 1;
#X obj 34 54 metro 50;
#X obj 34 104 mod 50;
#X floatatom 179 142 5 0 0 0 - - -, f 5;
#X obj 179 116 r tog-2;
#X connect 4 0 2 0;
#X connect 5 0 2 1;
#X connect 6 0 1 0;
#X connect 7 0 1 1;
#X connect 8 0 11 0;
#X connect 9 0 10 0;
#X connect 9 0 12 0;
#X connect 10 0 9 1;
#X connect 11 0 9 0;
#X connect 12 0 4 0;
#X connect 14 0 13 0;
