#N canvas 567 86 479 464 12;
#X obj 49 166 s;
#X floatatom 24 113 5 0 0 0 - - -, f 5;
#N canvas 1077 204 450 300 subpatch 1;
#X obj 10 10 r something;
#X obj 10 40 s 14996-subpatch-out;
#X connect 0 0 1 0;
#X restore 305 54 pd subpatch;
#X msg 116 204 \; pd-subpatch obj 10 10 r \$1;
#X msg 139 156 \; pd-subpatch clear;
#X obj 322 125 r \$0-subpatch-out;
#X floatatom 322 150 5 0 0 0 - - -, f 5;
#X obj 70 118 t a b a b;
#X obj 130 278 f \$0;
#X msg 130 307 \; pd-subpatch obj 10 40 s \$1-subpatch-out;
#X obj 93 247 t b b;
#X msg 93 357 \; pd-subpatch connect 0 0 1 0;
#X obj 49 33 inlet;
#X obj 111 33 inlet;
#X obj 322 172 outlet;
#X msg 70 65 symbol something;
#X connect 1 0 0 0;
#X connect 5 0 6 0;
#X connect 6 0 14 0;
#X connect 7 0 0 1;
#X connect 7 1 10 0;
#X connect 7 2 3 0;
#X connect 7 3 4 0;
#X connect 8 0 9 0;
#X connect 10 0 11 0;
#X connect 10 1 8 0;
#X connect 12 0 0 0;
#X connect 13 0 7 0;
#X connect 15 0 7 0;
